# xmcd
#
# Track frame offsets:
#	150
#	38848
#	60438
#	78750
#	102690
#	115055
#	132875
#	144783
#	150623
#	154415
#	177325
#	190105
#	202958
#	216265
#	244113
# Disc length: 3379 seconds
# Revision: 5
# Processed by: cddbd v1.5.2PL0 Copyright (c) Steve Scherf et al.
#
# Submitted via: libkcddb 0.31
#
DISCID=c70d310f
DTITLE=Alain Boublil, Claude-Michel Schönberg - Les Misérables - Amsterdam
DYEAR=1991
DGENRE=Musical
TTITLE0=Proloog
TTITLE1=Aan het eind van de dag
TTITLE2=Mijn droom
TTITLE3=Lekkere meiden
TTITLE4=Wie ben ik
TTITLE5=Fantine's dood
TTITLE6=Man tegen man
TTITLE7=In mijn luchtkasteel
TTITLE8=Madame in d'r eigen persoon
TTITLE9=Baas van 't hele spul
TTITLE10=De Thénardier wals
TTITLE11=Omlaag, omlaag
TTITLE12=Ster
TTITLE13=Rood en zwart
TTITLE14=Hoor je het zingen op straat ?
EXTD=Welke kwibus heeft dat spel hier onder blues gezet ???    --> soundtrack\nMuziek - Claude-Michel Schönberg - Teksten - Alain Boublil, Herbert Kretzmer\nOorspronkelijke Franse teksten - Alain Boublil, Jean-Marc Natel\nNederlandse vertaling - Seth Gaai
EXTD=kema\nOpvoering voorlopige versie - Parijs 1980\nPremière (bijna) definitieve versie - 30 september 1985 - Londen, Barbican Theatre\nPremière van deze productie - 28 februari 1991 - Theater Carré, Amsterdam\nRolbezetting (voornaamste) :\n  Jean Valje
EXTD=an - Henk Poort\n  Javert - Ernst Daniël Smid\n  Bisschop - Bert Luttjeboer\n  Fantine - Pia Douwes\n  Jonge Cosette - Kim La Croix\n  Mevr. Thénardier - Simone Kleinsma\n  Thénardier - Paul De Leeuw\n  Gavroche - Spike Huisman\n  Enjolras - BillVan 
EXTD=Dijk\n  Marius - Danny De Munk\n  Oudere Cosette - Joke De Kruijf\n  Eponine - Vera Mann\n  Grantaire - Peter De Smet\nOpnamen - 1991 [CD's Mercury - 848 598-2) YEAR: 1991
EXTT0=Proloog (Toulon, Digne, 1915]\nDwangarbeiders, Javert, Valjean/\nValjean, agenten, bisschop
EXTT1=1e Akte (Montreuil sur Mer, 1823]\nFantine, Valjean, Voorman, fabriekspersoneel
EXTT2=1e Akte\nFantine
EXTT3=1e Akte\n"Dames", klanten, Fantine, Javert, Valjean
EXTT4=1e Akte\nValjean
EXTT5=1e Akte\nFantine, Valjean
EXTT6=1e Akte\nValjean, Javert
EXTT7=1e Akte (Montfermeil, 1823]\nJonge Cosette
EXTT8=1e Akte\nMevr. Thénardier
EXTT9=1e Akte\nM. en mevr. Thénardier, gasten
EXTT10=1e Akte\nM. en mevr. Thénardier, Valjean
EXTT11=1e Akte (Parijs, 1832]\nGavroche, bedelaars
EXTT12=1e Akte\nJavert
EXTT13=1e Akte\nEnjolras, Marius, studenten
EXTT14=1e Akte\nEnjolras, studenten, volk
PLAYORDER=
